HIERARCHY
ROOT Hips
{
     OFFSET 1.88212 96.90440 -13.34250
     CHANNELS 6 Xposition Yposition Zposition Zrotation Xrotation Yrotation
     JOINT Spine
     {
          OFFSET 0.00000 11.89050 0.00000
          CHANNELS 3 Zrotation Xrotation Yrotation
          JOINT Spine1
          {
               OFFSET -0.00000 25.65740 0.12766
               CHANNELS 3 Zrotation Xrotation Yrotation
               JOINT HEad
               {
                    OFFSET 0.00000 8.73416 0.01134
                    CHANNELS 3 Zrotation Xrotation Yrotation
                    End Site
                    {
                         OFFSET -0.29000 12.77420 2.51395
                    }
               }
               JOINT LeftShoulder1
               {
                    OFFSET 8.99000 -0.36225 -0.22000
                    CHANNELS 3 Zrotation Xrotation Yrotation
                    JOINT LeftArm
                    {
                         OFFSET 10.28270 -0.00338 0.32212
                         CHANNELS 3 Zrotation Xrotation Yrotation
                         JOINT LeftForeArm
                         {
                              OFFSET 32.76690 0.09914 -1.42434
                              CHANNELS 3 Zrotation Xrotation Yrotation
                              JOINT LeftHand
                              {
                                   OFFSET 27.56430 0.08536 1.02216
                                   CHANNELS 3 Zrotation Xrotation Yrotation
                                   End Site
                                   {
                                        OFFSET 16.74430 -0.60000 1.50291
                                   }
                              }
                         }
                    }
               }
               JOINT RightShoulder
               {
                    OFFSET -8.99000 -0.36225 -0.22000
                    CHANNELS 3 Zrotation Xrotation Yrotation
                    JOINT RightArm
                    {
                         OFFSET -10.28270 -0.00338 0.32212
                         CHANNELS 3 Zrotation Xrotation Yrotation
                         JOINT RightForeArm
                         {
                              OFFSET -32.89710 0.09914 -1.42434
                              CHANNELS 3 Zrotation Xrotation Yrotation
                              JOINT RightHand
                              {
                                   OFFSET -27.49210 0.08536 1.02216
                                   CHANNELS 3 Zrotation Xrotation Yrotation
                                   End Site
                                   {
                                        OFFSET -16.63120 -0.60000 1.50291
                                   }
                              }
                         }
                    }
               }
          }
     }
     JOINT LeftUpLeg
     {
          OFFSET 8.94580 -8.66707 0.10165
          CHANNELS 3 Zrotation Xrotation Yrotation
          JOINT LeftLeg
          {
               OFFSET 0.00000 -44.42270 1.37270
               CHANNELS 3 Zrotation Xrotation Yrotation
               JOINT LeftFoot
               {
                    OFFSET -0.25355 -42.09240 -1.46059
                    CHANNELS 3 Zrotation Xrotation Yrotation
                    JOINT LeftToes
                    {
                         OFFSET -0.04000 -4.41509 8.49910
                         CHANNELS 3 Zrotation Xrotation Yrotation
                         End Site
                         {
                              OFFSET 0.08000 -0.04745 9.77979
                         }
                    }
               }
          }
     }
     JOINT RightUpLeg
     {
          OFFSET -8.94580 -8.66707 0.10165
          CHANNELS 3 Zrotation Xrotation Yrotation
          JOINT RightLeg
          {
               OFFSET 0.00000 -44.42270 1.37270
               CHANNELS 3 Zrotation Xrotation Yrotation
               JOINT RightFoot
               {
                    OFFSET 0.25355 -42.09240 -1.46059
                    CHANNELS 3 Zrotation Xrotation Yrotation
                    JOINT RightToes
                    {
                         OFFSET 0.04000 -4.41509 8.49910
                         CHANNELS 3 Zrotation Xrotation Yrotation
                         End Site
                         {
                              OFFSET -0.08000 -0.13745 9.77979
                         }
                    }
               }
          }
     }
}
MOTION
Frames: 10
Frame Time: 0.01667
27.26893 85.44642 456.37164 14.02087 6.77328 120.59012 -0.81474 25.23246 -1.80480 0.00314 -0.00125 -0.00087 2.19974 2.70732 14.94465 0.00491 5.82814 0.14918 -86.41581 -56.55728 -74.08761 -20.98067 39.59864 -88.00311 18.85885 11.90178 -10.75892 20.70582 6.43733 -0.88843 82.77940 0.69099 72.41188 5.13066 31.97062 108.59007 17.69839 11.29860 4.31021 29.11417 -4.16694 1.39776 -48.77583 15.49700 64.69880 31.21342 -0.02615 -0.01810 -13.65669 -28.56410 -53.85522 -27.04623 -2.91249 17.85123 43.71309 34.84328 -54.24707 -23.58235 0.01052 -0.01616 11.77735 -45.03574 18.81529 
27.35520 86.52965 455.63293 13.92989 6.71652 120.28365 -1.63460 25.37053 -1.34204 0.00311 -0.00130 -0.00223 1.50483 2.97698 15.82223 0.71842 5.22692 -0.45010 -81.97602 -58.55891 -69.73140 -18.77020 38.24672 -90.76177 16.75964 18.88536 -5.88764 20.74881 5.77842 -0.98971 80.23647 0.57286 73.06351 4.31425 31.63877 107.30814 14.97402 11.09280 5.17286 28.79342 -3.96520 1.91501 -46.11890 15.75605 60.96696 29.80091 -0.04095 0.01564 -5.95582 -23.54400 -41.32072 -26.58576 -2.10659 17.20079 40.39004 35.02999 -50.35101 -18.54111 -0.05991 -0.04276 15.70678 -39.67395 18.09651 
27.43229 87.50195 454.79904 13.78668 6.64927 119.95521 -2.39666 25.43096 -0.94144 0.00255 -0.00169 -0.00385 0.44447 3.28570 17.18602 1.53751 4.51392 -1.31400 -75.04477 -61.07963 -63.64124 -16.25704 36.19512 -93.33973 13.36732 25.98292 0.31947 20.63695 4.97852 -1.31869 76.71456 0.32427 74.02903 3.45660 31.21046 105.52700 14.16492 13.58157 1.64503 28.59356 -3.91320 2.44020 -42.77558 15.89729 56.16485 27.42947 -0.06428 0.06326 2.30766 -15.22714 -27.86825 -25.94239 -1.30804 16.20488 36.19773 35.34313 -45.23283 -13.06448 -0.07868 -0.08181 14.90145 -31.60852 11.76442 
27.49453 88.49142 453.85309 13.51330 6.48076 119.55898 -2.94877 25.21195 -0.75891 0.00668 -0.00481 -0.01513 -1.71729 3.74609 20.16131 2.33838 3.74276 -2.62480 -60.82019 -63.65522 -53.81300 -12.47132 32.06828 -93.62931 10.76877 31.55140 8.70498 20.21189 4.01546 -2.38928 70.38441 -0.85088 75.79292 2.60310 30.54521 102.53959 4.73954 8.36069 9.23769 28.65028 -4.16967 2.96744 -37.53078 15.98720 48.18867 22.45770 -0.23666 0.21215 2.98270 -10.05985 -26.60423 -24.67120 -1.02530 14.05483 29.08884 36.25602 -34.48295 -3.39156 -0.51042 -0.18341 -2.41125 -14.63459 -4.36676 
27.52765 89.55183 452.85736 13.15917 6.20305 119.10091 -3.29050 24.76591 -0.79004 0.00601 -0.00491 -0.01626 -3.88993 4.09961 23.22618 2.63484 3.23396 -3.74096 -42.64120 -62.92282 -42.53925 -6.76293 26.82335 -90.67814 9.84483 31.74472 16.50395 19.68145 3.33419 -3.42969 66.19588 -1.22661 76.98379 2.51315 29.94853 100.68177 2.35009 8.60621 7.94278 28.43426 -4.51336 3.45548 -32.26454 16.29113 40.00746 16.64466 -0.31482 0.26575 6.47562 -2.99956 -18.49366 -22.89993 -1.47185 10.89917 22.19390 37.78943 -25.15745 -4.27909 0.01020 -0.02706 1.92320 -18.18324 -5.51792 
27.51669 90.58603 451.89917 12.77379 5.78798 118.59797 -3.41982 24.14083 -1.01133 0.00501 -0.00468 -0.01578 -6.01042 4.34284 26.34211 2.54669 2.96521 -4.48802 -26.49981 -58.44123 -34.46234 -0.09390 21.82255 -83.29884 9.09167 30.82829 24.62766 19.09755 2.91656 -4.31439 63.54262 -1.17183 77.77610 2.70608 29.43516 99.77079 -1.31385 6.12047 10.52856 27.62156 -4.85817 3.87562 -26.90470 16.79515 31.82087 10.26498 -0.40835 0.18801 7.73509 0.49010 -12.12382 -20.71057 -2.84909 6.93498 15.22278 39.98327 -16.66390 -0.83003 -0.06813 -0.05285 1.12799 2.54151 -17.02705 
27.44119 91.62222 451.03931 12.39220 5.23578 118.05798 -3.37747 23.38064 -1.36224 0.00436 -0.00432 -0.01400 -8.01406 4.48730 29.44847 1.76913 2.95510 -4.58857 -14.60689 -51.43607 -31.04753 5.90203 18.43468 -72.05316 5.77945 26.52680 31.90936 18.48389 2.73980 -4.94044 62.04977 -0.88252 78.30016 2.91051 29.09419 99.38223 -1.61718 6.88705 8.72737 26.18091 -5.25378 4.22881 -21.02590 17.46428 23.90929 3.21615 -0.46072 0.08539 9.38848 2.92696 -4.34109 -18.28932 -5.26059 2.41252 7.93406 42.88600 -8.42842 0.04849 -0.01490 -0.02248 0.28325 -6.19628 -14.26574 
27.27775 92.52533 450.24280 12.03827 4.59022 117.49834 -3.21939 22.53962 -1.80132 0.00361 -0.00303 -0.01207 -9.86382 4.55159 32.49006 0.62573 3.14174 -4.12703 -5.98085 -43.61939 -31.41519 9.27955 16.59912 -57.11448 15.53407 13.98603 18.81930 17.84612 2.77825 -5.33809 61.43638 -0.43641 78.68176 3.05641 28.90127 99.29652 -3.06165 5.89950 9.63354 24.41209 -5.70897 4.53049 -16.67994 17.91142 17.82794 -2.45293 -0.31811 -0.02710 -2.02242 -8.43035 4.56350 -15.99868 -7.82799 -1.61282 0.98168 45.37471 -1.05415 1.99233 -0.01454 -0.00999 0.21591 -1.76095 -17.18490 
27.01114 93.24357 449.45004 11.72064 3.92133 116.93027 -2.97763 21.65890 -2.29848 0.00421 -0.00126 -0.00984 -11.58873 4.56976 35.41161 -0.48210 3.44628 -3.07564 0.48868 -36.80987 -35.39996 8.97160 15.20794 -40.85955 0.59445 12.60182 26.63949 17.17944 2.99919 -5.50199 61.46817 0.15969 78.98667 3.02962 28.89449 99.25326 -2.65849 6.68734 8.14999 22.62856 -6.24371 4.80042 -13.24235 18.42625 13.21417 -7.36369 -0.20835 -0.05512 4.99550 -6.26987 8.55654 -13.91578 -10.47728 -5.15379 -5.53458 47.51873 5.60390 3.40539 -0.00885 -0.00229 -0.50447 -4.84735 -16.34258 
26.63641 93.77071 448.60666 11.43871 3.29711 116.35450 -2.71806 20.77027 -2.81360 0.00198 0.00147 -0.00783 -13.19003 4.57139 38.16911 -1.66795 3.83156 -1.54786 4.73773 -32.62761 -41.96304 4.40379 14.05121 -22.77465 16.40097 4.70366 9.69421 16.42814 3.36187 -5.46870 62.01013 0.84115 79.24745 2.88153 29.00461 99.15554 -3.10172 6.37784 8.40122 21.03667 -6.86946 5.05847 -10.40239 19.07285 9.81440 -11.85856 -0.13808 -0.05719 6.63535 -9.80415 12.12700 -12.11868 -13.11878 -8.23103 -11.57796 49.34671 11.65284 5.02919 -0.00597 0.00319 -0.89152 -4.84138 -16.76420 
